/* XPM */
static char * close_inactive_xpm[] = {
"18 18 29 1",
" 	c None",
".	c #282828",
"+	c #282828",
"@	c #282828",
"#	c #282828",
"$	c #282828",
"%	c #282828",
"&	c #282828",
"*	c #282828",
"=	c #282828",
"-	c #282828",
";	c #282828",
">	c #282828",
",	c #282828",
"'	c #282828",
")	c #282828",
"!	c #282828",
"~	c #BBBBBB",
"{	c #282828",
"]	c #282828",
"^	c #282828",
"/	c #282828",
"(	c #BBBBBB",
"_	c #282828",
":	c #282828",
"<	c #282828",
"[	c #282828",
"}	c #282828",
"|	c #282828",
".....+@#$$#@%.....",
"...&*========-;...",
"..>,==========,>..",
".&,============';.",
".)===!======!===*.",
"+===!~{===={~!===]",
"^====/()==*()====_",
"#=====/()*()=====#",
"$======{~~{======$",
"$======{~~{======:",
"#=====*()/()=====<",
"@====*()==/()====[",
"%===!~{===={~!===]",
".)===!======!===-.",
".}|============';.",
"..>'=========='>..",
"...;{========);...",
".....]_<$$<_]....."};
