/* XPM */
static char * close_prelight_xpm[] = {
"18 18 48 1",
" 	c #282828",
".	c #282828",
"+	c #282828",
"@	c #BB8089",
"#	c #E58F98",
"$	c #F7959F",
"%	c #282828",
"&	c #282828",
"*	c #D58A93",
"=	c #FF98A2",
"-	c #282828",
";	c #282828",
">	c #F4949E",
",	c #282828",
"'	c #282828",
")	c #D58992",
"!	c #D38790",
"~	c #CD858E",
"{	c #CC848E",
"]	c #282828",
"^	c #282828",
"/	c #C6828B",
"(	c #BA7F88",
"_	c #B97F88",
":	c #E48E98",
"<	c #F7959E",
"[	c #282828",
"}	c #E48E97",
"|	c #B87D86",
"1	c #B87E86",
"2	c #282828",
"3	c #282828",
"4	c #D48891",
"5	c #D38791",
"6	c #282828",
"7	c #282828",
"8	c #F4939E",
"9	c #F3949D",
"0	c #282828",
"a	c #282828",
"b	c #F3939D",
"c	c #282828",
"d	c #282828",
"e	c #282828",
"f	c #282828",
"g	c #B67C84",
"h	c #E38D96",
"i	c #F6959E",
"    .+@#$$#@+.    ",
"%%%&*========*&%%%",
"--;>==========>;--",
",'>============>',",
",)==!~======{!==),",
"]==={^/====/^~===]",
"(====/^/==/^/====_",
":=====/^//^/=====:",
"<======/[[/======<",
"<======/[[/======<",
"}=====/^//^/=====}",
"|====/^/==/^/====1",
"2===~^/====/^{===2",
"34==!{======~!==53",
"678============976",
"00a8==========ba00",
"cccd!========!dccc",
"eeeecfghiihgfceeee"};
