/* XPM */
static char * hide_inactive_xpm[] = {
"18 18 4 1",
" 	c None",
".	c #282828",
"+	c #BBBBBB",
"@	c #BBBBBB",
"..................",
"..................",
"..................",
"..................",
"..................",
"..................",
"..................",
"....+........+....",
".....+......+.....",
"......+....+......",
".......+..+.......",
"........@@........",
"..................",
"..................",
"..................",
"..................",
"..................",
".................."};
