/* XPM */
static char * hide_active_xpm[] = {
"18 18 29 1",
" 	c #282828",
".	c #282828",
"+	c #282828",
"@	c #282828",
"#	c #282828",
"$	c #282828",
"%	c #282828",
"&	c #282828",
"*	c #282828",
"=	c #282828",
"-	c #282828",
";	c #E8EAEB",
">	c #282828",
",	c #282828",
"'	c #282828",
")	c #282828",
"!	c #282828",
"~	c #282828",
"{	c #282828",
"]	c #282828",
"^	c #282828",
"/	c #EFF0F1",
"(	c #282828",
"_	c #282828",
":	c #282828",
"<	c #282828",
"[	c #282828",
"}	c #282828",
"|	c #282828",
"                  ",
"..................",
"++++++++++++++++++",
"@@@@@@@@@@@@@@@@@@",
"##################",
"$$$$$$$$$$$$$$$$$$",
"%%%&*%%%%%%%%=&%%%",
"---*;>------>;,---",
"'''');)'''');)''''",
"!!!!!~;~!!~;~!!!!!",
"{{{{{{~;~~;~{{{{{{",
"]]]]]]]^//^]]]]]]]",
"((((((((__((((((((",
"::::::::::::::::::",
"<<<<<<<<<<<<<<<<<<",
"[[[[[[[[[[[[[[[[[[",
"}}}}}}}}}}}}}}}}}}",
"||||||||||||||||||"};
