/* XPM */
static char * maximize_prelight_xpm[] = {
"18 18 45 1",
" 	c #282828",
".	c #282828",
"+	c #7D848A",
"@	c #B1B6B9",
"#	c #D7D9DB",
"$	c #E8E9EB",
"%	c #282828",
"&	c #697278",
"*	c #C9CDCF",
"=	c #EFF0F1",
"-	c #282828",
";	c #767E85",
">	c #E5E7E8",
",	c #282828",
"'	c #687177",
")	c #C9CCCE",
"!	c #7B8287",
"~	c #BBBFC1",
"{	c #B0B5B8",
"]	c #282828",
"^	c #AFB4B8",
"/	c #D6D8DB",
"(	c #282828",
"_	c #E8E9EA",
":	c #D6D8DA",
"<	c #C1C5C8",
"[	c #C0C4C7",
"}	c #AEB3B6",
"|	c #C7CACC",
"1	c #777E83",
"2	c #282828",
"3	c #C8CBCD",
"4	c #282828",
"5	c #626B71",
"6	c #E5E6E8",
"7	c #E4E6E7",
"8	c #282828",
"9	c #71777E",
"0	c #E4E5E7",
"a	c #282828",
"b	c #61696F",
"c	c #757B80",
"d	c #ACB1B4",
"e	c #D5D7D9",
"f	c #E7E9EA",
"    .+@#$$#@+.    ",
"%%%&*========*&%%%",
"--;>==========>;--",
",'>============>',",
",)==============),",
"!=======~~=======!",
"{======~]]~======^",
"/=====~(~~(~=====/",
"_====~(~==~(~====_",
"_===~(~====~(~===_",
":==<(~======~([==:",
"}==|[========<|==}",
"1================1",
"23==============|2",
"456============754",
"8896==========0988",
"aaab|========|baaa",
"]]]]acdeffedca]]]]"};
