/* XPM */
static char * menu_active_xpm[] = {
"18 18 38 1",
" 	c None",
".	c #282828",
"+	c #282828",
"@	c #282828",
"#	c #282828",
"$	c #7A8084",
"%	c #282828",
"&	c #7A7F84",
"*	c #F6F7F7",
"=	c #979B9E",
"-	c #282828",
";	c #94979A",
">	c #F6F6F6",
",	c #999C9F",
"'	c #282828",
")	c #93979A",
"!	c #989C9F",
"~	c #282828",
"{	c #989B9E",
"]	c #282828",
"^	c #969A9D",
"/	c #F6F6F7",
"(	c #282828",
"_	c #96999C",
":	c #282828",
"<	c #282828",
"[	c #939799",
"}	c #979B9D",
"|	c #282828",
"1	c #939699",
"2	c #979A9D",
"3	c #282828",
"4	c #777C80",
"5	c #95989B",
"6	c #282828",
"7	c #282828",
"8	c #282828",
"9	c #282828",
"..................",
"++++++++++++++++++",
"@@@@@@@@@@@@@@@@@@",
"#######$##########",
"%%%%%%&*=%%%%%%%%%",
"-------;>,--------",
"'''''''')>!'''''''",
"~~~~~~~~~)>{~~~~~~",
"]]]]]]]]]]^/^]]]]]",
"((((((((((_/_(((((",
":::::::::;>{::::::",
"<<<<<<<<[>}<<<<<<<",
"|||||||1>2||||||||",
"3333334/5333333333",
"666666646666666666",
"777777777777777777",
"888888888888888888",
"999999999999999999"};
