/* XPM */
static char * shade_active_xpm[] = {
"18 18 34 1",
" 	c None",
".	c #282828",
"+	c #282828",
"@	c #282828",
"#	c #282828",
"$	c #282828",
"%	c #747C83",
"&	c #A7ACB0",
"*	c #282828",
"=	c #747C82",
"-	c #A7ACAF",
";	c #282828",
">	c #282828",
",	c #7F868D",
"'	c #282828",
")	c #7F868C",
"!	c #EFF0F1",
"~	c #282828",
"{	c #7E858B",
"]	c #E8EAEB",
"^	c #282828",
"/	c #282828",
"(	c #7E858A",
"_	c #282828",
":	c #777E83",
"<	c #7D848A",
"[	c #787F84",
"}	c #282828",
"|	c #71787E",
"1	c #787E83",
"2	c #282828",
"3	c #282828",
"4	c #282828",
"5	c #282828",
"..................",
"++++++++++++++++++",
"@@@@@@@@@@@@@@@@@@",
"##################",
"$$$%&&&&&&&&&&%$$$",
"***=----------=***",
";;;;;;;;;;;;;;;;;;",
">>>>>>>>,,>>>>>>>>",
"''''''')!!)'''''''",
"~~~~~~{]{{]{~~~~~~",
"^^^^^{]{^^{]{^^^^^",
"////(](////(](////",
"___:]<______<][___",
"}}}|1}}}}}}}}:|}}}",
"222222222222222222",
"333333333333333333",
"444444444444444444",
"555555555555555555"};
