/* XPM */
static char * shade_inactive_xpm[] = {
"18 18 6 1",
" 	c None",
".	c #282828",
"+	c #BBBBBB",
"@	c #282828",
"#	c #BBBBBB",
"$	c #BBBBBB",
"..................",
"..................",
"..................",
"..................",
"....++++++++++....",
"....@@@@@@@@@@....",
"..................",
"..................",
"........##........",
".......$..$.......",
"......$....$......",
".....$......$.....",
"....$........$....",
"..................",
"..................",
"..................",
"..................",
".................."};
