/* XPM */
static char * stick_inactive_xpm[] = {
"18 18 7 1",
" 	c None",
".	c #282828",
"+	c #BBBBBB",
"@	c #BBBBBB",
"#	c #BBBBBB",
"$	c #BBBBBB",
"%	c #BBBBBB",
"..................",
"..................",
"..................",
"...........++.....",
"..........+@@+....",
".........+@@@@+...",
"........+@@@@@+...",
".....#.+@@@@@+....",
"......$@@@@@+.....",
".......%@@@+......",
".......$%@+.......",
"......$..$........",
".....$....#.......",
"....#.............",
"..................",
"..................",
"..................",
".................."};
