/* XPM */
static char * stick_toggled_inactive_xpm[] = {
"18 18 10 1",
" 	c None",
".	c #282828",
"+	c #BBBBBB",
"@	c #BBBBBB",
"#	c #BBBBBB",
"$	c #BBBBBB",
"%	c #BBBBBB",
"&	c #BBBBBB",
"*	c #BBBBBB",
"=	c #282828",
"..................",
"..................",
"..................",
"......+@##@+......",
".....$%%%%%%$.....",
"....&%%%%%%%%$....",
"...+%%%%%%%%%%+...",
"...@%%%%**%%%%@...",
"...#%%%*==*%%%#...",
"...#%%%*==*%%%#...",
"...@%%%%**%%%%@...",
"...+%%%%%%%%%%+...",
"....$%%%%%%%%$....",
".....$%%%%%%$.....",
"......+@##@+......",
"..................",
"..................",
".................."};
