/* XPM */
static char * title_2_active_xpm[] = {
"5 29 25 1",
" 	c None",
".	c #282828",
"+	c #282828",
"@	c #282828",
"#	c #282828",
"$	c #282828",
"%	c #282828",
"&	c #282828",
"*	c #282828",
"=	c #282828",
"-	c #282828",
";	c #282828",
">	c #282828",
",	c #282828",
"'	c #282828",
")	c #282828",
"!	c #282828",
"~	c #282828",
"{	c #282828",
"]	c #282828",
"^	c #282828",
"/	c #282828",
"(	c #282828",
"_	c #282828",
":	c #282828",
".....",
"+++++",
"@@@@@",
"#####",
"$$$$$",
"%%%%%",
"&&&&&",
"*****",
"=====",
"-----",
";;;;;",
">>>>>",
",,,,,",
"'''''",
")))))",
"!!!!!",
"~~~~~",
"{{{{{",
"]]]]]",
"^^^^^",
"/////",
"(((((",
"_____",
"_____",
"_____",
"_____",
"_____",
"_____",
":::::"};
